<?xml version="1.0" encoding="UTF-8"?>
<svg id="Ebene_1" data-name="Ebene 1" xmlns="http://www.w3.org/2000/svg" viewBox="0 0 58.1 56">
  <defs>
    <style>
      .cls-1 {
        fill: #fff;
      }

      .cls-1, .cls-2 {
        stroke-width: 0px;
      }

      .cls-2 {
        fill: #1d1d1b;
      }
    </style>
  </defs>
  <path class="cls-2" d="m33.92,17.79l-6.1,2.53c-.06.03-.13.03-.2.02l-6.46-1.36c-.28-.06-.31-.44-.05-.54l6.1-2.53c.06-.03.13-.03.2-.02l6.46,1.36c.28.06.31.44.05.54h0Z"/>
  <path class="cls-2" d="m10.43,18.22c0,.43-.35.78-.78.78s-.78-.35-.78-.78.35-.78.78-.78.78.35.78.78h0Z"/>
  <path class="cls-2" d="m47.23,18.2c0,.43-.35.78-.78.78s-.78-.35-.78-.78.35-.78.78-.78.78.35.78.78h0Z"/>
  <path class="cls-2" d="m28.53,44.56c-2.64,0-5.28-.64-7.61-1.85-2.26-1.17-4.25-2.87-5.75-4.93-.07-.1-.05-.25.05-.32.1-.07.25-.05.32.05,3.03,4.12,7.88,6.59,12.99,6.59,7.07,0,13.42-4.73,15.44-11.5.04-.12.16-.19.28-.15.12.04.19.16.15.28-1,3.35-3.09,6.36-5.89,8.48-2.89,2.19-6.35,3.35-9.99,3.35h0Z"/>
  <path class="cls-2" d="m12.63,24.47s-.03,0-.05,0c-.12-.03-.2-.15-.17-.27.84-3.57,2.89-6.81,5.77-9.12,1.44-1.15,3.04-2.05,4.77-2.67,1.79-.64,3.67-.96,5.58-.96,3.67,0,7.15,1.18,10.05,3.4,2.81,2.15,4.9,5.2,5.87,8.59.03.12-.04.25-.16.28-.12.03-.25-.04-.28-.16-1.97-6.86-8.34-11.66-15.49-11.66-7.51,0-13.96,5.1-15.68,12.4-.02.11-.12.18-.22.18h0Z"/>
  <path class="cls-2" d="m28.53,53.91c-4.92,0-9.71-1.39-13.85-4.01-4.03-2.55-7.27-6.16-9.38-10.43-.06-.11,0-.25.1-.31.11-.06.25,0,.31.1,4.33,8.75,13.07,14.18,22.83,14.18,12.44,0,22.99-8.89,25.09-21.13.02-.12.14-.21.26-.19.12.02.21.14.19.26-1.02,5.95-4.13,11.4-8.75,15.33-2.29,1.95-4.88,3.48-7.69,4.53-2.91,1.09-5.97,1.64-9.1,1.64h0Z"/>
  <path class="cls-2" d="m3.68,21.72s-.04,0-.06,0c-.12-.03-.2-.16-.16-.28.72-2.75,1.88-5.34,3.45-7.72,1.55-2.34,3.45-4.4,5.66-6.13,2.23-1.75,4.71-3.11,7.37-4.04,2.75-.97,5.64-1.46,8.59-1.46,5.48,0,10.73,1.69,15.16,4.89,2.13,1.54,4.02,3.39,5.59,5.5,1.6,2.13,2.85,4.48,3.72,6.98.04.12-.02.25-.14.29-.12.04-.25-.02-.29-.14-3.56-10.21-13.22-17.07-24.04-17.07C16.95,2.55,6.83,10.36,3.9,21.55c-.03.1-.12.17-.22.17h0Z"/>
  <path class="cls-2" d="m25.7,25.28l-.24-2.28-.53.06-.12-.3c.36-.06.65-.22.71-.45l.31-.03.31,2.96-.45.05h0Z"/>
  <path class="cls-2" d="m26.82,22.88l.16,1.54c.02.22.13.33.31.31.18-.02.26-.15.24-.37l-.16-1.54c-.02-.22-.13-.33-.31-.31-.18.02-.26.15-.24.37h0Zm1-.11l.16,1.55c.05.47-.2.78-.65.83-.45.05-.75-.21-.8-.67l-.16-1.55c-.05-.47.2-.78.65-.83.45-.05.75.21.8.67h0Z"/>
  <path class="cls-2" d="m28.66,22.69l.16,1.54c.02.22.13.33.31.31.18-.02.26-.15.24-.37l-.16-1.54c-.02-.22-.13-.33-.31-.31-.18.02-.26.15-.24.37h0Zm1-.11l.16,1.55c.05.47-.2.78-.65.83-.45.05-.75-.21-.8-.67l-.16-1.55c-.05-.47.2-.78.65-.83.45-.05.75.21.8.67h0Z"/>
  <path class="cls-2" d="m31.71,23.57l.07.64c.01.13.07.19.17.17.1-.01.14-.08.13-.21l-.07-.64c-.01-.13-.07-.19-.17-.18-.1.01-.14.08-.13.21h0Zm.6-.06l.07.64c.03.29-.12.48-.4.51-.28.03-.47-.13-.5-.42l-.07-.64c-.03-.29.12-.48.4-.51.28-.03.47.13.5.42h0Zm-1.83,1.31l1.08-3.2.28-.03-1.08,3.2-.28.03h0Zm-.23-2.59l.07.64c.01.13.07.19.17.17.1-.01.14-.08.13-.21l-.07-.64c-.01-.13-.07-.19-.17-.17-.1.01-.14.08-.13.21h0Zm.6-.06l.07.64c.03.29-.12.48-.4.51-.28.03-.47-.13-.5-.42l-.07-.64c-.03-.29.12-.48.4-.51.28-.03.47.13.5.42h0Z"/>
  <path class="cls-2" d="m8.1,35.15c-.57.75-1.16,1.32-1.78,1.72-.62.4-1.35.66-2.19.78-1.11.16-2.04.02-2.78-.42-.75-.44-1.18-1.1-1.31-1.98-.11-.77.07-1.47.53-2.13.46-.66,1.24-1.18,2.34-1.57-1.15-.26-1.8-.88-1.94-1.86-.11-.78.17-1.52.84-2.2.67-.68,1.54-1.1,2.6-1.25.76-.11,1.34-.04,1.72.21.39.25.6.5.63.74.02.15-.07.41-.28.77-.21.36-.37.55-.49.57-.14.02-.27-.16-.38-.54-.27-.85-.68-1.23-1.24-1.15-.44.06-.8.36-1.08.9-.28.54-.38,1.11-.29,1.73.14.98.69,1.4,1.66,1.26.16-.02.27-.03.33-.02.06.01.09.05.1.12.03.19.02.41-.02.66-.04.24-.12.37-.24.39-.04,0-.17.01-.39.02-.22,0-.42.02-.58.04-.54.08-.98.37-1.3.87-.33.5-.44,1.06-.35,1.69.1.68.41,1.21.93,1.59.52.38,1.13.52,1.82.42.57-.08,1.12-.32,1.65-.71.53-.39.99-.9,1.38-1.54l.13.88h0Zm6.89-.99c-.3.43-.7.68-1.21.75-.4.06-.85-.07-1.35-.38-.46.71-.87,1.25-1.25,1.61-.38.36-.82.58-1.31.65-.45.06-.85-.07-1.2-.39-.35-.32-.57-.76-.65-1.31-.15-1.07-.05-2.56.31-4.46.37-1.9.78-3.36,1.24-4.38.65-.31,1.21-.57,1.71-.78.49-.21.78-.32.86-.33.15-.02.29.06.43.24.14.18.23.41.27.69.08.57-.06,1.28-.42,2.12-.36.84-.87,1.69-1.51,2.56l-.86,1.15c-.17,1.16-.21,2-.14,2.53.04.29.14.51.3.67.16.16.34.22.56.19.25-.04.47-.15.65-.34.18-.19.37-.47.57-.84-.32-.4-.51-.84-.58-1.3-.11-.74,0-1.46.31-2.15.31-.69.69-1.07,1.15-1.13.18-.03.34.03.47.18.14.14.23.34.26.61.12.84-.18,2.06-.91,3.66.33.31.67.44,1.03.38.23-.03.41-.11.56-.24.15-.13.34-.4.59-.82l.13.88h0Zm-4.75-3.52c.71-.93,1.23-1.77,1.55-2.51.33-.75.47-1.3.42-1.65-.02-.14-.07-.26-.15-.34-.08-.08-.16-.12-.25-.1-.59.08-1.12,1.62-1.57,4.6h0Zm10.49,2.7c-.56.73-1.07,1.29-1.55,1.67-.47.38-1.02.61-1.65.7-.69.1-1.29-.04-1.78-.43-.49-.39-.79-.94-.9-1.67-.16-1.09.08-2.13.7-3.12.63-.99,1.4-1.55,2.31-1.68.47-.07.88,0,1.2.2.32.2.51.5.57.91.15,1.06-.85,2.08-3,3.07.35.98.96,1.4,1.82,1.28.34-.05.64-.19.93-.41.28-.22.68-.69,1.21-1.41l.13.88h0Zm-4.22-.85c1.25-.55,1.8-1.33,1.66-2.32-.07-.49-.28-.71-.64-.66-.34.05-.62.35-.85.91-.23.56-.29,1.25-.17,2.07h0Zm9.96.02c-1.11,1.43-2.01,2.2-2.71,2.3-.31.04-.6-.05-.85-.28-.25-.23-.41-.54-.46-.93-.1-.72.14-1.75.74-3.07-.35.25-.74.44-1.18.59-.24.67-.67,1.41-1.28,2.22l-.18.03-.1-.69c.34-.48.63-.98.89-1.51-.47-.13-.73-.38-.78-.77-.06-.39.02-.83.22-1.31.21-.48.54-.76,1.01-.83.4-.06.63.12.69.52.05.32,0,.79-.15,1.42.84-.21,1.49-.97,1.95-2.27l.69-.13-.43,2.07c-.18.87-.29,1.46-.33,1.77-.04.31-.05.59-.02.82.03.21.11.38.22.49.12.11.26.16.43.13.18-.03.35-.11.5-.26.15-.15.48-.54.99-1.19l.13.88h0Zm1.71-4.86c.34-.14.69-.27,1.04-.38.35-.11.56-.17.63-.18.05,0,.08.01.08.05.01.08,0,.16-.03.25-.05.25-.06.48-.03.69.04.27.25.61.62,1.02.37.42.59.82.65,1.22.11.78-.15,1.59-.8,2.43-.65.83-1.37,1.31-2.18,1.43-.35.05-.68,0-.99-.14-.31-.14-.48-.32-.52-.53-.02-.12.09-.38.33-.76.23-.38.41-.58.54-.6.16-.02.34.17.53.57.19.4.44.58.75.53.31-.05.59-.23.82-.56.23-.33.32-.66.28-1-.04-.32-.28-.73-.7-1.21-.43-.49-.72-.9-.89-1.25-.46,1.04-1.07,2.13-1.84,3.27l-.18.03-.1-.69c1.06-1.52,1.72-2.91,1.99-4.17h0Zm9.09,3.3c-.55.73-1.04,1.29-1.47,1.66-.43.37-.85.59-1.28.65-.44.06-.82-.07-1.15-.4-.33-.33-.54-.8-.62-1.41-.08-.53-.05-1.26.09-2.17l.16-1.22-.6.12.07-1.25.73-.14.38-2.5,2-.72-.41,2.79,1.07-.22-.08,1.22-1.17.27-.26,1.81c-.09.62-.11,1.11-.06,1.47.03.24.12.43.27.57.14.14.31.19.5.16.26-.04.51-.16.74-.36.23-.2.56-.61.98-1.2l.13.88h0Zm8.19-1.18c-.71.89-1.22,1.49-1.54,1.77-.32.29-.64.45-.96.5-.81.12-1.3-.54-1.46-1.98-.41.81-.8,1.42-1.18,1.83-.38.41-.8.65-1.26.72-.45.06-.86-.09-1.24-.47-.38-.38-.61-.88-.7-1.49-.11-.77,0-1.54.31-2.29.32-.76.78-1.4,1.38-1.93.6-.53,1.15-.83,1.66-.9.64-.09,1.13.14,1.47.69l1.45-1.11.43-.06-.36,2.36c-.19,1.19-.25,1.99-.19,2.42.06.45.25.65.57.6.2-.03.4-.17.61-.41.21-.25.5-.62.87-1.12l.13.88h0Zm-5.56,1.22c.51-.07.93-.58,1.26-1.52.33-.94.44-1.78.33-2.51-.04-.29-.14-.5-.29-.65-.15-.14-.33-.2-.55-.17-.51.07-.93.58-1.26,1.52-.33.94-.45,1.77-.34,2.5.04.28.14.49.3.64.16.15.34.21.55.18h0Zm13.76-2.4c-.63.84-1.12,1.41-1.47,1.73-.35.32-.67.49-.97.54-.36.05-.68-.08-.94-.41-.26-.32-.45-.83-.55-1.51-.32.74-.7,1.33-1.14,1.75-.44.43-.86.67-1.26.73-.44.06-.85-.09-1.24-.46-.39-.37-.63-.83-.71-1.38-.17-1.15.1-2.27.79-3.37.69-1.1,1.51-1.72,2.47-1.86.26-.04.48-.03.64.03.16.06.35.17.55.33l.43-4.79c.87-.33,1.45-.51,1.76-.56.1-.01.16.02.17.1,0,.06-.04.61-.15,1.65-.44,4.17-.59,6.68-.47,7.52.03.2.09.35.19.46.1.11.21.15.35.13.33-.05.8-.55,1.43-1.52l.13.88h0Zm-5.49,1.21c.5-.07.91-.57,1.22-1.49.31-.92.41-1.75.31-2.5-.04-.3-.15-.54-.31-.7s-.35-.23-.57-.19c-.47.07-.87.58-1.19,1.54-.31.96-.42,1.8-.32,2.52.04.28.14.5.29.65.15.15.34.2.57.17h0Zm9.91-1.85c-.55.73-1.04,1.29-1.47,1.66-.43.37-.85.59-1.28.65-.44.06-.82-.07-1.15-.4-.33-.33-.54-.8-.62-1.41-.08-.53-.05-1.26.09-2.17l.16-1.22-.6.12.07-1.25.73-.14.38-2.5,2-.72-.41,2.79,1.07-.22-.08,1.22-1.17.27-.26,1.81c-.09.62-.11,1.11-.06,1.47.03.24.12.43.27.57.14.14.31.19.5.16.26-.04.51-.16.74-.36.23-.2.56-.61.98-1.2l.13.88h0Z"/>
  <path class="cls-1" d="m26.05,18.79l.02.32-1.21.08c0-.12.04-.24.09-.35.06-.11.18-.27.36-.46.15-.16.23-.26.27-.32.04-.07.06-.15.06-.22,0-.08-.03-.14-.07-.17-.04-.04-.1-.06-.18-.05-.07,0-.13.03-.17.08-.04.05-.06.12-.06.22h-.35c0-.2.06-.34.16-.43.1-.09.23-.14.4-.15.18-.01.32.03.43.12.11.09.17.21.18.35,0,.08,0,.16-.03.24-.02.08-.06.16-.12.24-.04.06-.11.14-.21.25-.1.11-.17.18-.19.21-.03.03-.05.07-.06.1l.69-.05h0Zm.71-1.55c.17-.01.32.04.42.16.13.14.2.38.23.72.02.34-.02.59-.13.75-.09.13-.22.2-.4.21-.18.01-.32-.05-.44-.17-.12-.13-.19-.37-.21-.71-.02-.34.02-.59.13-.75.09-.13.22-.2.4-.21h0Zm.02.29s-.08.02-.11.05c-.03.03-.05.08-.07.15-.02.09-.02.24,0,.46.01.21.04.36.06.44.03.08.06.13.09.15.03.02.07.03.11.03.04,0,.08-.02.11-.05.03-.03.05-.08.06-.15.02-.09.02-.24,0-.45-.01-.21-.04-.36-.06-.43-.03-.08-.06-.13-.09-.15-.03-.02-.07-.04-.11-.03h0Zm2.07,1.07l.02.32-1.21.08c0-.12.04-.24.09-.35.06-.11.18-.27.36-.46.15-.16.23-.26.27-.32.04-.07.06-.15.06-.22,0-.08-.03-.14-.07-.17-.04-.04-.1-.06-.18-.05-.07,0-.13.03-.17.08-.04.05-.06.12-.06.22h-.35c0-.2.06-.34.16-.43.1-.09.23-.14.4-.15.18-.01.32.03.43.12.11.09.17.21.18.35,0,.08,0,.16-.03.24-.02.08-.06.16-.12.24-.04.06-.11.14-.21.25-.1.11-.17.18-.19.21-.03.03-.05.07-.06.1l.69-.05h0Zm.21-.17l.33-.06c.02.08.05.15.1.19s.11.06.17.06c.07,0,.13-.04.17-.09.04-.06.06-.13.06-.22,0-.09-.03-.15-.08-.2-.05-.05-.11-.07-.18-.06-.04,0-.1.02-.16.04l.02-.28c.09,0,.16-.03.21-.08.05-.05.07-.11.06-.18,0-.06-.03-.11-.06-.14-.04-.03-.09-.05-.15-.04-.06,0-.11.03-.15.07-.04.04-.06.11-.06.19l-.32-.03c.01-.11.04-.2.08-.27.04-.07.1-.12.18-.17.08-.04.17-.07.26-.08.17-.01.31.03.42.13.09.08.14.18.15.29.01.16-.07.29-.23.4.1.02.19.06.26.13.07.07.1.16.11.27.01.16-.04.3-.15.42-.11.12-.25.19-.42.2-.16.01-.3-.03-.42-.11-.11-.09-.18-.21-.21-.36h0Z"/>
  <path class="cls-2" d="m2,22.68c-.06,0-.12,0-.18-.02-.42-.1-.69-.52-.59-.94,1.39-6.08,4.85-11.59,9.73-15.53,2.44-1.97,5.16-3.5,8.09-4.55,3.03-1.09,6.22-1.64,9.48-1.64,5.91,0,11.56,1.82,16.34,5.26,2.3,1.66,4.33,3.64,6.04,5.91,1.73,2.29,3.08,4.82,4.03,7.51.14.41-.07.86-.48,1-.41.14-.86-.07-1-.48C49.74,8.65,39.72,1.57,28.53,1.57,16.13,1.57,5.53,10,2.77,22.07c-.08.36-.41.61-.76.61h0Z"/>
  <path class="cls-2" d="m16.98,12.4s-.08,0-.11.02c-.03.02-.06.04-.09.06-.01,0-.03.02-.05.03-.02.01-.03.02-.04.02-.01,0-.03,0-.07-.02-.03-.02-.07-.04-.1-.07-.04-.03-.07-.05-.1-.08-.03-.03-.05-.04-.06-.06l-1.72-1.97c-.06-.07-.09-.14-.07-.2.02-.06.06-.12.11-.19.02-.02.02-.04,0-.06-.02-.02-.04-.02-.06,0-.15.11-.29.23-.43.34-.14.12-.28.24-.42.36-.01.01-.02.02-.02.04,0,.02,0,.03.01.03.03.03.07.03.11,0,.04-.02.08-.05.12-.08.01-.01.03-.02.05-.03.04-.02.09-.02.13,0,.04.02.08.05.11.09l.71.82-1.42,1.24-.72-.82c-.05-.06-.07-.13-.06-.19.01-.07.05-.13.1-.18.02-.02.02-.04,0-.06-.02-.02-.04-.02-.06,0-.15.11-.29.22-.43.34-.14.12-.28.23-.42.36-.02.01-.02.03-.02.05s0,.03.03.03c.03.02.06.02.09,0s.06-.03.1-.06c.02-.01.04-.02.06-.04.02-.01.04-.02.07-.02.02,0,.05,0,.08.02.03.02.06.05.1.09l1.72,1.98c.05.06.09.11.12.15.03.04.05.07.05.11,0,.03,0,.07-.02.11-.02.04-.05.08-.09.14-.02.02-.02.04,0,.06.02.02.04.02.06,0,.15-.12.3-.24.45-.38.15-.13.29-.26.42-.39.02-.02.02-.04,0-.06-.02-.02-.04-.02-.06,0-.06.06-.11.09-.16.11-.05.02-.09.02-.14.02-.04,0-.09-.03-.13-.07-.04-.04-.09-.08-.14-.14l-.85-.97,1.42-1.24.86.98s.04.05.07.09c.03.04.05.08.07.12.02.04.03.08.03.12,0,.04,0,.07-.03.09-.01.01-.04.02-.07.04-.03,0-.04.03-.03.06,0,.03.02.04.05.03.03,0,.06-.02.1-.05.04-.02.08-.05.12-.08s.08-.06.11-.09c.04-.03.06-.06.09-.07l.5-.44s.03-.03.03-.05c0-.02-.02-.03-.04-.02h0Zm2.48-1.82l-.05-.07c-.06.03-.13.06-.2.07-.07.02-.14,0-.21-.04-.22-.12-.43-.25-.64-.4-.21-.14-.41-.29-.62-.43l-.44-.3h0s-.02,0-.04-.02c-.01-.01-.03-.02-.05-.04h0s-.07-.04-.11-.07c-.04-.03-.08-.05-.12-.07-.04-.02-.08-.04-.11-.05-.04-.01-.07-.02-.09-.02-.03.01-.05.03-.05.05.04.24.08.47.11.71.04.24.08.47.12.71.03.16.05.33.08.5.03.17.05.34.08.5,0,.03,0,.07,0,.11,0,.04-.01.09-.03.12-.01.04-.03.07-.05.1-.02.03-.05.05-.08.06l.03.08.71-.43s.03-.04.02-.06c-.01-.02-.03-.03-.06-.01-.03.01-.07.02-.11.04-.04.01-.07,0-.09-.03-.02-.02-.03-.07-.05-.14-.02-.07-.04-.14-.05-.23-.02-.08-.03-.17-.05-.25-.02-.08-.03-.15-.03-.21l.65-.41c.14.09.26.18.39.26.12.08.25.17.38.26v.07s-.01.04,0,.05c.02,0,.03,0,.05,0,.05-.03.1-.05.14-.08.05-.03.09-.06.14-.09.07-.04.13-.08.19-.13.06-.04.12-.09.19-.13h0Zm-1.67-.33l-.51.32c-.02-.15-.05-.29-.08-.42-.03-.13-.06-.27-.09-.41l.68.51h0Zm3.78-3.18l-.05-.07c-.11.04-.22.07-.32.11-.11.04-.21.08-.32.12l-.16.07s-.04.02-.04.05c0,.02,0,.03.03.03.04,0,.09,0,.15-.01.02,0,.04,0,.07-.01.02,0,.04,0,.07,0,.02,0,.05.02.07.04.02.02.04.06.06.11l.11.27s.04.09.05.14c.02.04.03.09.05.14.03.07.06.15.1.23.04.08.07.16.11.23.04.09.08.18.11.26.04.09.07.17.11.27-.46-.19-.91-.38-1.37-.57-.46-.18-.92-.37-1.38-.54,0,0-.02,0-.03,0-.01,0-.02.01-.03.02-.01.02-.02.04-.03.06,0,.02,0,.04,0,.07l.82,2.08c.02.06.02.11,0,.16-.02.04-.06.07-.11.09l-.05.02s-.04.03-.03.05c0,.03.02.04.05.03.07,0,.13-.03.2-.05.07-.02.13-.05.2-.07l.15-.06s.1-.04.15-.06c.05-.02.1-.04.16-.06.03-.01.04-.03.04-.05,0-.02-.01-.03-.04-.04-.03-.01-.07-.01-.1,0-.03,0-.06.01-.09.02-.02,0-.04,0-.06.01-.02,0-.04,0-.06,0-.02,0-.04-.03-.06-.05-.02-.03-.04-.07-.06-.12-.04-.11-.09-.22-.14-.33-.05-.11-.09-.21-.14-.32-.05-.11-.1-.22-.15-.32-.05-.11-.09-.22-.14-.33-.01-.03-.02-.06-.03-.08-.01-.03-.02-.05-.03-.08l.32.13h0c.39.18.79.34,1.2.51.4.16.82.31,1.24.42.02,0,.04,0,.06-.01.02-.01.02-.03.02-.05-.06-.19-.12-.38-.18-.57-.07-.19-.14-.37-.21-.56-.03-.08-.07-.17-.11-.27-.04-.1-.08-.19-.11-.28-.04-.09-.08-.18-.11-.27-.04-.09-.07-.18-.11-.28-.01-.03,0-.06.02-.09.03-.03.06-.05.09-.08h0s.03-.02.04-.03c.01,0,.02-.01.02-.01h0Zm3.83.26s-.02-.09-.03-.13c-.01-.05-.02-.09-.04-.13-.05-.13-.13-.25-.26-.34-.13-.1-.28-.17-.44-.23-.16-.06-.33-.09-.49-.11-.17-.02-.31,0-.44.02-.06.01-.13.03-.21.05-.07.02-.14.04-.21.06-.13.04-.27.07-.4.1-.05.01-.11.02-.17.03s-.12.02-.18.03c-.04,0-.09.01-.13.02-.04,0-.08.02-.13.03-.02,0-.04.01-.04.03,0,.01,0,.03,0,.04.01.02.03.03.06.03.03,0,.06,0,.09,0,.04,0,.08,0,.12,0,.04,0,.07.04.08.1l.42,1.88c.02.1.03.18,0,.23-.02.05-.07.09-.16.12-.03.01-.04.03-.03.06,0,.02.03.03.06.03.09-.02.2-.05.31-.06.11-.02.21-.03.31-.05.09-.01.18-.03.27-.04.09-.02.18-.03.27-.05.22-.05.42-.12.61-.21.19-.09.35-.21.48-.34s.22-.3.27-.49c.05-.19.05-.41,0-.65h0Zm-.39.22c.04.18.04.35,0,.49-.04.14-.11.27-.2.38-.1.11-.22.2-.36.27-.14.07-.3.12-.46.16-.08.02-.15.03-.21.04-.06,0-.12,0-.17-.01-.05-.01-.09-.04-.13-.09-.03-.04-.06-.11-.08-.2l-.4-1.78c.06-.03.12-.06.18-.08.06-.02.12-.04.18-.05.18-.04.36-.05.54-.04.18.01.34.05.49.12.15.07.28.17.39.3.11.13.19.3.23.49h0Zm5.01-1.61c-.06-.02-.13-.02-.19-.02-.06,0-.13,0-.2,0-.07,0-.15,0-.22,0-.08,0-.15,0-.23,0-.03,0-.05.02-.05.04,0,.03.02.04.05.04,0,0,.01,0,.01,0,0,0,0,0,.02,0,.03,0,.06,0,.1.01.04,0,.06.02.06.03,0,.09-.02.2-.05.32s-.07.25-.12.39c-.05.14-.1.28-.15.42-.06.14-.11.27-.16.4-.02.05-.04.1-.06.14-.02.04-.04.09-.05.13-.02-.05-.04-.1-.06-.15-.02-.04-.03-.09-.05-.13-.02-.04-.03-.09-.05-.13-.02-.05-.04-.1-.05-.15-.09-.23-.18-.46-.27-.69-.09-.23-.2-.46-.32-.67-.01-.02-.03-.02-.05-.02-.02,0-.03,0-.04.02-.14.32-.28.63-.42.95-.14.32-.28.64-.42.96,0-.03-.01-.05-.02-.06,0-.02-.01-.03-.02-.04,0-.01,0-.03-.01-.04,0-.01-.01-.03-.02-.05-.09-.26-.18-.52-.27-.79-.09-.27-.15-.54-.19-.81.02-.02.03-.02.05-.03.02,0,.04,0,.05,0,.03,0,.06,0,.09-.02.03,0,.04-.02.04-.04,0-.02-.02-.04-.05-.04-.16,0-.32-.01-.48-.02-.16,0-.32,0-.48,0-.03,0-.05,0-.06.03,0,.02,0,.03.02.05.03.02.05.03.08.04.03,0,.05.01.09.02.02,0,.04.01.07.02.02,0,.04.02.06.04.03.03.06.09.09.17.04.08.07.18.11.29.04.11.08.23.13.36.04.13.09.26.13.38.04.12.08.24.12.37.04.12.08.24.12.35.04.11.08.21.11.31.04.09.07.17.1.23.01.02.03.02.05.02.02,0,.04,0,.05-.02.09-.18.17-.35.25-.53.08-.17.16-.35.23-.53.06-.15.12-.29.19-.43.06-.14.13-.29.2-.43.05.11.09.21.12.29.03.08.07.18.11.29.08.22.17.45.27.69.1.24.2.45.32.66.01.02.03.02.05.02.02,0,.04-.01.05-.03.09-.19.17-.39.26-.6.08-.21.16-.43.24-.64.03-.07.05-.13.07-.2.02-.06.05-.13.07-.2,0-.03.02-.05.03-.08.01-.03.02-.06.04-.09.04-.11.09-.22.13-.33.05-.11.1-.22.17-.31.03-.05.06-.07.1-.07h.09s.05,0,.05-.03c0-.02,0-.04-.03-.05h0Zm2.15,2.41s0-.02,0-.03c0,0-.02-.02-.03-.02-.01,0-.02,0-.04,0-.01,0-.02,0-.03.02-.04.1-.11.18-.2.21-.09.04-.19.05-.29.03-.08-.01-.16-.04-.25-.09-.09-.05-.15-.11-.19-.18l.14-.91h.06s.08.02.14.03c.06,0,.11.02.17.03.06.01.11.03.15.04.05.02.08.03.09.04,0,0,.02.02.02.05,0,.03.01.05.02.08,0,.02,0,.03,0,.04,0,0,.01.03.05.05.01.01.03.02.05.02.02,0,.03-.01.04-.03.01-.04.03-.08.04-.12.01-.04.02-.07.04-.11.01-.04.03-.09.04-.14.01-.06.03-.1.04-.14,0-.02,0-.03-.01-.04-.01-.01-.03-.02-.05-.02-.02,0-.04.01-.06.03-.02.02-.05.03-.08.04h0s-.06.01-.08.02c-.03,0-.05,0-.06,0l-.56-.09.14-.89h.08s.05.02.08.02c.03,0,.05,0,.07,0,.03,0,.05,0,.07,0,.02,0,.05,0,.07,0,.04,0,.09.02.13.03.04.01.08.03.11.05.03.02.06.05.07.09s.02.08.02.13c0,.03.01.04.05.05.03,0,.05,0,.06-.02,0-.02.02-.04.02-.05,0-.02.01-.04.02-.06.02-.05.04-.1.06-.14.02-.05.04-.1.05-.16,0-.02,0-.03-.01-.04-.01-.01-.03-.02-.06-.01-.05,0-.13,0-.26,0-.13-.01-.27-.03-.43-.06-.11-.02-.22-.03-.32-.05-.11-.02-.2-.04-.29-.05-.06,0-.11-.02-.15-.03-.05,0-.08-.01-.11-.02-.03,0-.05,0-.06.02-.01.02,0,.03.02.05.02.02.05.03.07.04.03.01.05.02.07.03.03.01.06.03.09.05.03.02.04.06.03.11l-.29,1.92c-.01.08-.04.15-.07.2-.04.05-.1.07-.19.06-.03,0-.04,0-.05.03,0,.03,0,.04.03.05.11.02.22.04.33.06.11.02.23.03.34.05.05,0,.1.01.15.02.05,0,.1.01.15.02.02,0,.06.01.11.02.05,0,.11.02.17.03.06.01.12.02.17.03.05,0,.09.01.11,0h.04s.16-.43.16-.43h0Zm3.02,1.22v-.09c-.1-.01-.19-.05-.27-.12-.08-.07-.15-.15-.22-.25-.07-.1-.13-.2-.19-.32-.06-.11-.11-.22-.16-.33-.03-.07-.06-.13-.09-.19-.03-.06-.06-.12-.1-.18.06-.03.13-.07.19-.11.07-.04.13-.09.19-.14.06-.05.11-.11.16-.17.05-.06.08-.13.1-.2.04-.14.04-.26,0-.36-.04-.1-.11-.19-.2-.26-.09-.07-.19-.13-.31-.17-.12-.05-.24-.08-.35-.11-.03,0-.06-.02-.09-.02-.03,0-.06-.01-.09-.02l-.1-.03s-.09-.03-.14-.04c-.04-.01-.09-.03-.14-.04-.04-.01-.07-.02-.11-.03-.04-.01-.07-.02-.11-.03l-.07-.02s-.04,0-.06,0c-.01,0-.01.02,0,.04,0,.03.02.05.05.06.02.01.05.03.08.04.03.01.06.03.09.05.03.02.03.07.01.15l-.51,1.86c-.02.06-.03.1-.04.14-.01.03-.03.06-.05.07-.02.01-.05.02-.08.02-.03,0-.07,0-.12-.01-.03,0-.05,0-.05.03,0,.02,0,.04.03.05.15.05.31.1.46.14.15.04.31.09.46.13.03,0,.05,0,.06-.01.01-.02.01-.03-.01-.05-.02-.02-.04-.04-.07-.06-.03-.01-.05-.02-.08-.03-.01,0-.03-.01-.05-.02-.02,0-.03-.01-.04-.02,0,0,0-.02-.01-.04,0-.02,0-.05,0-.08,0-.03,0-.06,0-.09,0-.03,0-.05,0-.06l.16-.6s.04,0,.05.01c0,0,.02,0,.05.02.07.02.14.04.22.08.08.03.14.08.18.14.04.06.08.13.12.21.04.08.07.15.1.23.04.09.08.18.12.26.04.09.09.17.15.24.06.07.12.14.2.2.08.06.17.1.27.13.13.04.27.05.39.03h0Zm-.87-2.06c-.04.16-.11.27-.22.34-.1.07-.23.09-.38.04-.05-.01-.11-.03-.16-.05-.06-.02-.11-.04-.16-.06l.3-1.1c.07,0,.14,0,.22.03.09.02.16.06.22.12.06.05.11.12.14.19.03.07.05.15.06.23,0,.08,0,.17-.03.26h0Zm3.8,3.39v-.09c-.09-.04-.18-.11-.27-.22-.09-.11-.17-.23-.24-.37-.08-.14-.15-.29-.22-.45-.07-.16-.13-.31-.19-.46-.03-.08-.06-.16-.09-.24-.03-.08-.06-.15-.09-.21.07-.02.15-.04.22-.07.07-.03.15-.06.25-.09.11-.04.22-.08.34-.12.11-.04.23-.07.34-.1.11-.03.21-.04.31-.05.1,0,.19,0,.27.03.03.01.05,0,.06-.02.01-.02,0-.04-.03-.06-.06-.03-.12-.06-.18-.09-.06-.03-.12-.05-.18-.08-.05-.02-.11-.05-.16-.07-.05-.02-.1-.05-.16-.08-.02-.01-.04-.01-.06,0-.01,0-.02.02,0,.04,0,.02,0,.04-.01.07-.01.03-.05.06-.11.1-.06.03-.14.07-.22.1-.09.03-.18.07-.28.1-.1.03-.2.06-.3.09-.06.02-.12.04-.18.06-.06.02-.11.03-.16.05.05-.13.11-.25.16-.37.05-.12.11-.24.16-.35.02-.05.07-.09.13-.11.06-.02.11-.02.16,0,.03.01.04,0,.06-.02s0-.04-.02-.06c-.14-.07-.28-.14-.41-.2-.14-.06-.28-.13-.42-.19-.02-.01-.04-.01-.06,0-.01,0-.02.02-.01.04,0,.03.02.05.04.07.02.02.05.03.08.05.03.02.06.04.08.07.02.03.02.08,0,.14l-.79,1.76c-.02.05-.05.1-.06.13-.02.03-.04.05-.06.06-.02.01-.05.02-.08.01-.03,0-.07-.01-.12-.03-.03,0-.05,0-.06.03,0,.02,0,.04.03.05.14.07.29.14.43.2.14.06.28.13.43.19.03.01.05.01.06,0,.01-.02.01-.04,0-.06-.03-.03-.06-.06-.08-.08-.03-.02-.06-.03-.08-.05-.02-.01-.03-.02-.04-.03-.01,0-.02-.02-.02-.04,0-.02,0-.05.01-.08.01-.04.03-.08.06-.14l.34-.75c.04.08.07.15.09.21s.05.15.09.26c.05.14.11.29.17.44.06.15.13.29.21.42.08.13.16.25.25.35.09.1.19.18.3.23.06.03.12.04.17.06.06.01.12.02.18,0h0Z"/>
  <path class="cls-2" d="m40.09,11.7s0-.02,0-.03c0-.01-.01-.02-.02-.03,0,0-.02-.01-.03-.02-.01,0-.02,0-.03,0-.08.08-.18.11-.27.11-.1,0-.19-.04-.27-.09-.07-.04-.13-.11-.19-.18-.06-.08-.09-.16-.1-.24l.5-.77.05.03s.07.05.12.08c.05.03.09.06.14.1.05.03.09.07.12.1.04.03.06.06.06.08,0,.01,0,.03,0,.06,0,.03-.01.06-.02.08,0,.01-.01.03-.02.03,0,0,0,.03.02.07,0,.02.02.03.04.04.02,0,.03,0,.05,0,.03-.03.06-.06.08-.09.03-.03.05-.06.08-.08.03-.03.06-.07.09-.11s.07-.08.09-.11c.01-.01.01-.03,0-.04,0-.02-.02-.03-.04-.04-.02,0-.04,0-.07,0-.03,0-.06,0-.09,0h0s-.06-.01-.08-.02c-.03,0-.05-.01-.06-.02l-.48-.31.5-.76.07.05s.04.03.06.04c.02.01.04.02.06.04.02.01.04.03.06.04.02.01.04.02.06.04.04.02.07.05.11.08.03.03.06.06.08.09.02.03.03.07.03.11,0,.04-.01.08-.04.13-.01.02,0,.04.02.06.03.02.05.02.07,0,.02-.01.03-.03.04-.04.01-.01.03-.03.05-.04.04-.04.08-.07.11-.11.04-.04.08-.08.11-.12.01-.01.01-.03,0-.04,0-.02-.02-.03-.04-.04-.05-.01-.12-.05-.24-.11-.11-.07-.23-.14-.37-.23-.09-.06-.18-.12-.27-.18-.09-.06-.17-.12-.25-.17-.05-.03-.09-.06-.13-.09-.04-.03-.07-.05-.09-.06-.02-.02-.04-.02-.06,0-.02.01-.02.03,0,.05.01.03.03.05.05.07.02.02.04.04.05.06.03.02.05.05.06.08.02.03,0,.07-.02.11l-1.06,1.62c-.05.07-.1.12-.15.15-.05.03-.12.02-.19-.03-.02-.02-.04-.01-.06,0-.02.02-.01.04,0,.06.09.07.18.13.28.19.1.06.19.12.29.18.04.03.08.05.13.08.04.03.09.05.13.08.02.01.05.03.1.07s.09.06.14.1c.05.04.1.07.14.1.04.03.08.05.1.05h.04s.32-.31.32-.31h0Zm2.21,2.42l.03-.08c-.08-.05-.14-.13-.18-.23-.04-.1-.07-.21-.08-.32-.02-.12-.03-.24-.02-.37,0-.13,0-.25,0-.37,0-.07,0-.15,0-.21,0-.07,0-.14,0-.2.07,0,.15,0,.22-.01.08,0,.15-.02.23-.04.08-.02.15-.05.22-.08.07-.04.13-.08.18-.13.1-.11.15-.22.16-.32,0-.11-.01-.21-.06-.32-.05-.1-.11-.2-.2-.3-.09-.1-.17-.18-.26-.26-.03-.02-.05-.04-.07-.06-.02-.02-.05-.04-.07-.06l-.07-.07s-.07-.07-.11-.1c-.03-.03-.07-.06-.1-.1-.03-.03-.05-.05-.08-.08-.03-.03-.06-.05-.08-.07l-.05-.05s-.04-.02-.05-.02c-.02,0-.02.01-.03.03,0,.03,0,.05.01.08.01.02.03.05.06.07.02.03.04.06.06.09.01.03,0,.08-.06.14l-1.29,1.43s-.07.08-.1.1c-.03.02-.05.04-.08.04-.02,0-.05,0-.08-.02-.03-.01-.06-.04-.1-.07-.03-.01-.05-.01-.06,0-.01.02-.01.04,0,.06.11.12.23.23.35.33.12.11.24.22.35.32.02.02.04.02.06.02.02,0,.02-.02.01-.05,0-.03-.02-.06-.04-.08-.02-.02-.04-.05-.06-.07,0-.01-.02-.03-.04-.04-.01-.01-.02-.02-.03-.04,0,0,0-.02.01-.04.01-.02.02-.05.04-.07.02-.03.03-.05.04-.07.01-.02.03-.04.03-.05l.42-.46s.03.03.04.03c0,0,.02.02.04.04.05.05.1.1.16.17.05.06.09.13.09.2.01.08.01.16.01.24,0,.08,0,.17-.01.26,0,.1-.01.19-.01.29,0,.1,0,.19.02.28.02.09.04.18.09.26.04.09.1.16.19.24.1.09.22.16.34.2h0Zm.16-2.23c-.11.12-.22.19-.35.21-.12.02-.24-.03-.36-.13-.04-.04-.08-.07-.12-.12-.04-.04-.08-.08-.12-.12l.77-.85c.06.03.12.07.18.13.07.06.11.13.14.2.03.08.04.15.04.23,0,.08-.02.16-.05.24-.03.08-.08.15-.14.21h0Z"/>
  <path class="cls-2" d="m28.53,56c-5.18,0-10.24-1.42-14.63-4.12-4.27-2.62-7.76-6.34-10.11-10.76-.2-.38-.06-.86.32-1.06.38-.2.86-.06,1.06.32,4.6,8.66,13.55,14.04,23.35,14.04,13.05,0,24.02-9.33,26.09-22.19.07-.43.47-.72.9-.65.43.07.72.47.65.9-1.05,6.49-4.38,12.44-9.4,16.76-2.49,2.14-5.29,3.8-8.35,4.96-3.16,1.19-6.49,1.8-9.9,1.8h0Z"/>
  <path class="cls-2" d="m15.88,44.19s.08-.08.12-.13c.05-.05.09-.1.13-.14.07-.09.13-.2.17-.32.04-.12.06-.25.06-.39,0-.14,0-.27-.03-.41-.03-.14-.06-.28-.11-.41-.05-.13-.1-.25-.17-.36-.07-.11-.14-.21-.22-.28-.06-.05-.12-.11-.18-.17s-.13-.12-.19-.17c-.07-.06-.13-.11-.2-.17-.06-.05-.12-.11-.19-.17-.05-.05-.1-.1-.14-.14-.04-.05-.09-.1-.13-.15-.04-.04-.07-.08-.11-.12-.04-.04-.08-.08-.12-.12-.01-.01-.03-.02-.05-.02-.02,0-.03.01-.03.03-.01.02,0,.05,0,.08.01.03.03.05.06.08.01.02.03.04.04.06.01.02.02.05.03.07,0,.03,0,.06,0,.09,0,.03-.03.06-.06.1l-1.82,1.88s-.09.09-.13.12c-.04.03-.08.05-.11.06-.04,0-.08,0-.12,0-.04-.01-.09-.03-.15-.07-.03-.02-.05-.02-.06,0-.01.02,0,.04.01.07.09.08.19.17.27.27.09.09.17.19.26.28.07.08.14.16.22.24.07.08.15.16.23.24.22.21.44.38.67.5.23.12.46.19.69.2.23.01.46-.03.69-.13.23-.1.45-.26.67-.49h0Zm-.48-.22c-.17.17-.34.3-.52.37-.18.08-.36.11-.54.1-.18,0-.36-.06-.53-.15-.18-.09-.35-.21-.51-.37-.06-.06-.12-.13-.19-.22-.06-.09-.1-.17-.12-.26,0-.02,0-.05.02-.08.02-.03.04-.07.06-.1.02-.03.05-.06.08-.09.03-.03.05-.05.07-.07l1.74-1.8c.07.03.14.08.2.12.06.05.12.1.18.16.18.17.32.36.41.56.1.2.15.41.16.62,0,.21-.03.41-.11.62-.08.21-.21.4-.39.58h0Zm.49,1.94s-.02-.06-.04-.08c-.02-.02-.04-.04-.07-.06-.01,0-.03-.02-.04-.04-.01-.01-.02-.02-.03-.03,0-.01,0-.03.01-.06,0-.03.02-.05.03-.08.01-.03.02-.05.04-.07.01-.02.02-.04.03-.05l1.15-1.53c.05-.06.09-.09.14-.07.05.01.1.03.15.06.03.01.05,0,.06,0,.01-.02,0-.04-.01-.06-.05-.05-.11-.09-.17-.13-.06-.04-.12-.08-.18-.12-.06-.04-.12-.09-.17-.14-.06-.05-.12-.1-.18-.14-.03-.02-.05-.02-.06,0-.02.02-.01.04.01.06.04.04.08.09.1.14.03.05.02.1-.02.15l-1.16,1.54s-.03.04-.06.06-.05.04-.07.06c-.03.02-.05.03-.08.04-.03,0-.05,0-.07-.01,0,0-.01,0-.03,0-.01,0-.02-.01-.03-.03-.02-.02-.04-.02-.07,0-.03.02-.03.04-.02.06.01.02.03.04.06.07.03.02.06.05.1.07.04.02.07.04.1.06.03.02.06.04.08.05l.14.11s.09.07.14.1c.05.03.09.06.13.1l.08-.04h0Zm1.89.75s0-.02,0-.03c0-.01-.01-.02-.02-.03,0,0-.02-.01-.03-.02-.01,0-.02,0-.03,0-.08.08-.17.12-.27.11-.1,0-.19-.03-.28-.09-.07-.04-.13-.1-.2-.18-.06-.08-.09-.16-.1-.24l.49-.78.05.03s.07.05.12.08c.05.03.1.06.14.1.05.03.09.07.13.1.04.03.06.06.06.08,0,.01,0,.03,0,.06,0,.03,0,.06-.02.08,0,.02-.01.03-.02.03,0,0,0,.03.02.07,0,.02.02.03.04.04.02,0,.03,0,.05-.01.03-.03.06-.07.08-.09.03-.03.05-.06.08-.09.03-.03.06-.07.09-.12.03-.05.06-.08.09-.12.01-.01.01-.03,0-.04,0-.02-.02-.03-.04-.03-.02,0-.04,0-.07,0-.03,0-.06.01-.09,0h0s-.06-.01-.08-.01c-.03,0-.05-.01-.06-.02l-.48-.3.48-.77.07.05s.04.03.07.04c.02.01.04.02.06.04.02.01.04.03.06.04.02.01.04.02.06.04.04.02.07.05.11.08.03.03.06.06.08.09.02.03.03.07.03.11,0,.04,0,.08-.04.13-.01.02,0,.04.02.06.03.02.05.02.07,0,.02-.01.03-.03.04-.04.01-.01.03-.03.04-.04.04-.04.07-.07.11-.11.04-.04.07-.08.11-.13.01-.01.01-.03,0-.04,0-.02-.02-.03-.05-.03-.05-.01-.13-.05-.24-.11-.11-.06-.24-.14-.37-.22-.09-.06-.19-.12-.28-.18-.09-.06-.17-.11-.25-.16-.05-.03-.09-.06-.13-.08-.04-.03-.07-.05-.09-.06-.02-.02-.05-.02-.06,0-.02.01-.02.03,0,.05.01.03.03.05.05.07.02.02.04.04.06.06.03.02.05.05.06.08.02.03.01.07-.02.11l-1.03,1.65c-.05.07-.09.12-.15.15-.05.03-.12.02-.19-.02-.02-.02-.04-.01-.06.01-.02.02-.01.04.01.06.09.06.18.13.28.18.1.06.19.12.29.18.04.03.09.05.13.08.04.03.09.05.13.08.02.01.05.03.1.06.05.03.09.06.15.1.05.03.1.07.15.09.05.03.08.04.1.05h.04s.32-.31.32-.31h0Zm3.86-.29l.02-.08c-.1-.06-.2-.11-.3-.17-.1-.06-.2-.11-.31-.16l-.15-.07s-.04-.01-.06,0c-.02.01-.02.03,0,.05.02.04.06.07.11.11.02.01.04.03.05.04.02.01.03.03.04.05.01.02.01.05.01.08,0,.03-.02.07-.04.12l-.13.26s-.05.09-.07.13c-.02.04-.05.08-.07.13-.04.07-.07.15-.11.23-.04.08-.07.16-.1.23-.04.09-.08.17-.12.26-.04.08-.08.17-.13.25-.16-.47-.31-.94-.48-1.4-.16-.47-.33-.93-.5-1.39,0,0-.01-.02-.02-.02-.01,0-.02-.01-.03,0-.02,0-.04.01-.06.02-.02,0-.04.02-.05.05l-1.02,1.99c-.03.06-.07.09-.12.1-.05.01-.1,0-.14-.03l-.05-.03s-.05,0-.06.01c-.02.02-.01.04,0,.06.05.04.11.08.17.12.06.04.12.07.19.1l.15.08s.1.05.15.07c.05.02.1.05.15.08.03.01.05.01.06,0,.02-.01.02-.03,0-.05-.02-.03-.04-.06-.06-.08-.03-.02-.05-.04-.07-.06-.02-.01-.03-.03-.05-.04-.02-.02-.03-.03-.04-.06,0-.02,0-.05,0-.08,0-.03.02-.07.05-.12.06-.11.11-.21.16-.32.05-.11.1-.21.15-.32.05-.11.1-.22.15-.32.05-.11.1-.21.16-.32.01-.03.03-.05.04-.08s.03-.05.04-.07l.11.33h0c.13.41.26.82.41,1.23.14.41.31.82.5,1.21.01.02.03.03.05.03.02,0,.03,0,.05-.02.11-.17.21-.34.31-.51.1-.17.19-.35.28-.53.04-.08.09-.17.13-.26.05-.1.09-.19.14-.27.04-.09.08-.17.13-.26.04-.09.09-.18.14-.27.02-.03.04-.04.09-.04.04,0,.08,0,.12.02h0s.04,0,.05.01c.01,0,.02,0,.02,0h0Zm.83,2.07c.03-.08.03-.16.02-.24-.01-.08-.03-.16-.07-.25-.03-.08-.08-.16-.13-.24-.05-.08-.1-.16-.15-.24-.04-.06-.08-.12-.12-.19-.04-.06-.08-.13-.1-.19-.03-.07-.05-.13-.06-.19-.01-.06,0-.12.01-.17.02-.06.05-.1.09-.14.04-.04.08-.06.13-.08.05-.02.1-.02.16-.02.05,0,.11.01.16.03.05.02.1.04.14.07.04.03.08.07.11.11.03.04.05.09.06.14.01.05,0,.1-.01.16,0,.02,0,.04.02.05.02.01.04.02.07,0,.05-.03.09-.07.11-.13.03-.06.05-.12.07-.18l.04-.13s0-.04-.02-.06c-.11-.07-.23-.13-.36-.17-.08-.03-.18-.05-.3-.07-.12-.02-.24-.03-.35-.02-.12,0-.22.04-.32.09-.1.05-.16.13-.2.24-.02.07-.03.14-.02.22.01.08.03.16.07.24.03.08.08.17.12.26.05.09.1.17.15.26.04.08.09.15.13.23.04.08.08.15.11.22.03.07.05.14.06.21.01.06,0,.12,0,.18-.02.06-.06.11-.1.14-.05.03-.1.06-.16.07-.06.01-.12.02-.19.01-.06,0-.12-.01-.17-.03-.06-.02-.11-.05-.16-.08-.05-.04-.1-.08-.13-.12-.04-.05-.06-.1-.07-.16-.01-.06,0-.11.02-.17l.02-.05s0-.02,0-.03c0,0-.02-.02-.03-.02-.01,0-.02,0-.04,0-.01,0-.02,0-.03.02-.02.05-.04.09-.07.12-.02.03-.04.06-.06.09s-.03.06-.04.09c-.02.06-.02.12,0,.17.02.05.05.1.09.14.04.04.09.08.14.1.05.03.1.05.15.07.1.03.21.06.34.07.13,0,.25,0,.38-.02.12-.02.23-.07.33-.13.1-.06.17-.15.21-.26h0Zm2.94-1.16l.02-.07s0-.05-.05-.06c-.02,0-.04,0-.05,0-.02,0-.03,0-.04,0h0s-.05,0-.08,0c-.03,0-.05,0-.06,0l-1.64-.4s-.04-.01-.07-.02c-.03-.01-.06-.02-.09-.04-.03-.01-.06-.03-.08-.04-.03-.01-.05-.03-.06-.04-.01,0-.03-.01-.05-.01-.02,0-.03,0-.04.02-.01.02-.02.03-.03.05,0,.02-.02.03-.03.05-.03.04-.05.09-.08.14-.03.05-.05.09-.06.13,0,.03-.01.05,0,.06,0,.02.01.03.04.04.02,0,.04,0,.06,0,.05-.05.11-.09.17-.12.07-.03.13-.04.2-.02l.58.14-.47,1.94c-.01.06-.03.1-.04.13-.01.03-.03.05-.05.07-.02.01-.05.02-.08.02-.03,0-.07,0-.12,0-.03,0-.05.01-.05.04,0,.02,0,.04.03.05.16.04.31.09.46.13.15.04.31.08.47.12.02,0,.04,0,.06,0,.01-.01.02-.02.01-.04,0-.03-.02-.05-.05-.06-.03-.01-.06-.03-.09-.04-.02,0-.04-.02-.06-.03-.03,0-.04-.02-.05-.03h0s0-.02,0-.04c0-.02,0-.05,0-.08,0-.03,0-.06,0-.09,0-.03,0-.05,0-.05l.46-1.91s.03.02.04.01c0,0,.02,0,.04,0,.03,0,.06.01.09.02.03,0,.06.01.09.02.03,0,.05,0,.08.01.02,0,.05.01.07.02.1.02.18.06.25.11.07.05.1.13.1.24,0,.02.02.04.04.04.03,0,.05,0,.06-.02.06-.12.1-.24.13-.36h0Zm1.58,2.18s0-.04-.04-.05c-.03,0-.05,0-.07.01-.07.1-.17.18-.28.22-.12.05-.23.06-.35.05-.06,0-.11-.02-.16-.04-.05-.02-.1-.05-.14-.09-.04-.04-.07-.08-.09-.13-.02-.05-.03-.11-.02-.17l.22-1.75c0-.06.03-.1.07-.12.04-.02.09-.03.14-.02h.06s.05,0,.05-.02c0-.02,0-.04-.03-.05-.06-.03-.13-.05-.2-.06-.07-.01-.14-.02-.21-.03-.05,0-.09-.01-.14-.01-.05,0-.09,0-.14-.01l-.26-.03s-.04,0-.05.01c-.01.01-.02.03,0,.04,0,.02.03.04.06.05.03.01.06.02.09.03.03,0,.07.02.1.04.03.02.04.07.03.14l-.24,1.91c-.01.08-.03.15-.07.2-.03.05-.09.07-.18.06-.03,0-.05,0-.05.03,0,.03,0,.04.04.05.15.03.31.05.47.07.06,0,.13.02.19.02.07,0,.13.01.19.02.08,0,.15.01.22.02.08,0,.15.02.23.03.07,0,.14.02.22.03.07.01.15.02.22.04l.02-.08s-.02,0-.02,0c0,0,0,0-.02,0,.04-.05.06-.11.08-.17.01-.06.03-.12.04-.18,0,0,0-.02,0-.03,0,0,0-.01,0-.02h0Zm1.91.04s0-.02-.01-.03c-.01,0-.02-.01-.04-.01-.01,0-.03,0-.04,0-.01,0-.02.01-.02.02-.03.11-.09.19-.17.24-.09.05-.18.07-.28.07-.08,0-.17-.02-.26-.05-.09-.03-.16-.08-.21-.15v-.92s.06,0,.06,0c.04,0,.09,0,.14,0,.06,0,.11,0,.17,0,.06,0,.11,0,.16.02.05,0,.08.02.09.03,0,0,.02.02.03.05.01.03.02.05.03.08,0,.02,0,.03,0,.04,0,0,.02.02.05.04.02.01.03.02.05,0,.02,0,.03-.02.03-.03,0-.04.01-.09.02-.12,0-.04.01-.08.02-.11,0-.04.01-.09.02-.15,0-.06.01-.11.02-.15,0-.02,0-.03-.02-.04-.01-.01-.03-.01-.05,0-.02,0-.04.02-.06.04-.02.02-.04.04-.07.05h0s-.06.02-.08.03c-.03.01-.05.02-.06.02h-.57s0-.9,0-.9h.09s.05,0,.08,0c.03,0,.05,0,.07,0,.03,0,.05,0,.07,0s.05,0,.07,0c.04,0,.09,0,.13,0,.04,0,.08.02.12.04.03.02.06.04.09.07.02.03.03.07.04.13,0,.03.02.04.05.04.03,0,.05-.01.06-.03,0-.02.01-.04.01-.06,0-.02,0-.04.01-.06.01-.05.03-.1.04-.15.01-.05.02-.11.03-.17,0-.02,0-.03-.02-.04-.02,0-.03-.01-.06,0-.04.02-.13.03-.26.03-.13,0-.27,0-.43,0-.11,0-.22,0-.33,0-.11,0-.21,0-.3,0-.06,0-.11,0-.15,0-.05,0-.08,0-.11,0-.03,0-.05,0-.06.03,0,.02,0,.03.02.05.03.02.05.03.08.03.03,0,.05.01.08.02.03,0,.07.02.1.04.03.02.05.05.05.11v1.94c0,.09-.01.15-.04.21s-.09.08-.18.08c-.03,0-.04.01-.05.04,0,.03.01.04.04.04.11,0,.22,0,.34,0,.11,0,.23,0,.34,0,.05,0,.1,0,.15,0,.05,0,.1,0,.15,0,.02,0,.06,0,.12,0,.06,0,.11,0,.18,0,.06,0,.12,0,.17,0,.05,0,.09,0,.11,0l.04-.02.1-.44h0Zm1.22.35s-.05-.03-.08-.04c-.03,0-.06,0-.09,0-.02,0-.03,0-.05,0-.02,0-.03,0-.04,0,0,0-.02-.03-.03-.05-.01-.02-.02-.05-.03-.08s-.02-.05-.02-.08c0-.02,0-.04-.01-.06l-.12-1.91c0-.08.01-.12.06-.15.04-.02.1-.04.16-.05.03,0,.04-.02.04-.05,0-.02-.02-.03-.05-.04-.07,0-.14,0-.21.01-.07.01-.14.02-.21.02-.07,0-.15,0-.22,0-.08,0-.15,0-.23.01-.03,0-.05.02-.05.04,0,.02.02.04.05.04.06,0,.11.02.17.04.05.02.08.07.09.13l.12,1.92s0,.05,0,.09c0,.03,0,.06-.02.1,0,.03-.02.06-.04.08-.02.02-.04.03-.06.03,0,0-.01,0-.03,0-.01,0-.02,0-.04,0-.03,0-.05,0-.06.04-.01.03,0,.05.03.06.02,0,.05.01.09.01.04,0,.08,0,.12-.01.04,0,.08-.01.12-.02.04,0,.07,0,.09-.01h.18c.06,0,.12-.01.17-.02.05,0,.11-.01.17-.01l.03-.08h0Z"/>
  <path class="cls-2" d="m31.85,49.05c0-.08-.04-.16-.08-.22-.05-.07-.1-.13-.17-.19-.07-.06-.14-.11-.22-.16-.08-.05-.16-.1-.24-.15-.06-.04-.12-.08-.19-.12-.07-.04-.12-.08-.18-.13-.05-.05-.1-.09-.14-.14-.04-.05-.06-.1-.06-.15,0-.06,0-.11.02-.16.02-.05.05-.09.09-.13.04-.04.08-.07.13-.09.05-.02.1-.04.15-.04.05,0,.11,0,.16,0,.05,0,.1.03.15.05.05.03.08.06.12.1.03.04.05.09.06.15,0,.02.02.03.04.04.02,0,.04,0,.06-.02.03-.05.05-.1.05-.16,0-.06,0-.13-.02-.19l-.02-.13s-.01-.04-.05-.04c-.13-.01-.27-.01-.4,0-.08,0-.18.03-.3.07-.12.03-.22.08-.32.14-.1.06-.18.13-.25.22-.06.09-.09.19-.08.3,0,.07.03.14.08.2.04.06.1.13.17.19.07.06.14.12.22.18.08.06.16.11.25.17.07.05.14.1.21.15.07.05.14.1.19.15.06.05.11.11.15.16.04.05.06.11.07.16,0,.06,0,.12-.03.17-.03.05-.07.1-.12.13-.05.04-.1.07-.16.09-.06.02-.11.04-.16.05-.06,0-.12,0-.18,0-.06,0-.12-.03-.18-.05-.05-.03-.1-.06-.13-.11-.04-.05-.05-.1-.06-.17v-.06s-.01-.02-.03-.03c-.01,0-.02,0-.04,0-.01,0-.02,0-.04.01-.01,0-.02.02-.02.03,0,.05,0,.1-.01.14,0,.04-.01.07-.02.1,0,.03,0,.07,0,.1,0,.07.03.12.07.16.04.04.09.07.14.09.05.02.11.03.17.03.06,0,.12,0,.17,0,.1-.01.21-.04.33-.09.12-.05.23-.11.33-.18.1-.08.18-.16.24-.26.06-.1.09-.21.07-.33h0Zm2.22-2.28v-.07s-.04-.04-.08-.03c-.02,0-.03.01-.05.02-.02,0-.03.01-.04.02h0s-.05.02-.07.03c-.02.01-.04.02-.06.02l-1.66.32s-.04,0-.07,0c-.03,0-.06,0-.09,0-.03,0-.06,0-.09,0-.03,0-.05,0-.07-.01-.02,0-.03,0-.05,0-.01,0-.02.02-.03.04,0,.02,0,.04,0,.06,0,.02,0,.04,0,.05,0,.05-.01.1-.02.16,0,.06,0,.1,0,.14,0,.03.01.05.02.06,0,.02.03.03.05.02.03,0,.04-.01.05-.03.02-.07.06-.13.11-.18.05-.05.11-.09.18-.1l.59-.11.37,1.96c.01.06.02.1.02.13s0,.06-.02.08c-.01.02-.03.04-.06.05-.03.01-.07.03-.11.04-.03.01-.04.03-.03.05s.02.03.05.03c.16-.02.32-.05.47-.08.16-.03.31-.06.47-.09.02,0,.04-.01.05-.03,0-.01,0-.03,0-.04-.02-.02-.04-.03-.07-.03-.03,0-.06,0-.1,0-.02,0-.04,0-.07,0-.03,0-.05,0-.06,0h0s-.02-.01-.03-.04c-.01-.02-.02-.05-.03-.08-.01-.03-.02-.06-.03-.08,0-.03-.02-.04-.02-.05l-.37-1.93s.04,0,.04,0c0,0,.02,0,.04-.01.03,0,.06-.01.09-.02.03,0,.06-.01.09-.02.03,0,.05-.02.08-.02.02,0,.05,0,.07-.01.1-.02.19-.02.28,0,.08.01.15.07.19.18.01.02.03.03.06.02.03,0,.05-.02.05-.04,0-.13,0-.26-.03-.38h0Zm2.57-.95l-.03-.07c-.13.04-.27.08-.4.12-.13.04-.26.09-.4.14-.04.01-.05.04-.04.06.02.03.04.04.07.04.03,0,.06-.01.1-.02.02,0,.04,0,.06-.01.02,0,.04,0,.06,0,.02,0,.04.02.05.03.02.02.03.04.05.08.04.12.08.23.12.35.04.12.08.23.13.34.04.12.09.23.13.35.04.12.08.23.12.34.04.11.05.21.04.3-.01.1-.04.18-.1.26-.05.08-.12.15-.2.21-.08.06-.17.11-.26.14-.1.03-.19.05-.29.06-.1,0-.19,0-.28-.04-.09-.03-.17-.08-.24-.14-.07-.06-.12-.15-.16-.25-.04-.12-.08-.23-.12-.35-.04-.12-.08-.24-.12-.36l-.25-.7c-.02-.07-.02-.12.02-.15.03-.03.08-.06.14-.09.03-.01.03-.03.03-.05,0-.02-.03-.03-.05-.03-.25.07-.5.15-.75.23l-.14.05s-.05.04-.04.06c.02.03.04.04.07.04.03,0,.06-.01.1-.02.04,0,.08-.01.12-.01.04,0,.08.04.1.11l.47,1.32s.02.04.03.06c.01.02.02.05.03.07h0c.05.13.13.23.23.3.11.07.23.12.36.15.13.02.27.03.42.01.14-.02.27-.04.39-.09.15-.05.28-.12.39-.22.11-.09.2-.2.27-.32.07-.12.1-.25.12-.4.01-.14,0-.29-.06-.44l-.44-1.24c-.02-.06-.01-.11.02-.15.04-.04.08-.07.13-.1h0Zm2.63-1.45l-.05-.06c-.1.05-.21.1-.31.15-.1.05-.2.1-.31.16l-.15.09s-.03.03-.03.05c0,.02.01.03.04.03.04,0,.09,0,.15-.03.02,0,.04-.01.06-.02.02,0,.04,0,.07,0,.02,0,.05.02.07.04.03.02.05.05.07.1l.14.25s.05.09.07.13c.02.04.04.09.07.13.04.07.08.14.12.22.04.08.09.15.13.21.05.08.1.17.14.25.05.08.09.16.14.25-.48-.14-.95-.27-1.43-.4-.48-.13-.95-.26-1.43-.38,0,0-.02,0-.03,0-.01,0-.02.01-.03.02,0,.02-.01.04-.02.06,0,.02,0,.05,0,.07l1.06,1.97c.03.06.04.11.02.15-.02.05-.05.08-.1.1l-.05.03s-.03.03-.03.06c0,.02.03.03.05.02.07-.02.13-.04.19-.07.06-.03.13-.06.19-.1l.15-.08s.1-.05.14-.08c.05-.03.1-.05.15-.08.02-.01.04-.03.04-.05,0-.02-.02-.03-.04-.03-.04,0-.07,0-.1,0-.03.01-.06.02-.09.03-.02,0-.04.01-.06.02-.02,0-.04,0-.07,0-.02,0-.05-.02-.07-.05-.02-.02-.05-.06-.07-.11-.06-.11-.11-.21-.17-.31-.06-.1-.12-.2-.18-.3-.06-.1-.12-.2-.18-.3-.06-.1-.12-.2-.17-.31-.01-.03-.03-.05-.04-.08-.01-.03-.03-.05-.04-.08l.33.1h0c.41.13.83.25,1.25.37.42.12.85.21,1.29.27.02,0,.04,0,.05-.02.01-.01.02-.03.01-.05-.08-.18-.16-.36-.25-.54-.09-.18-.18-.35-.28-.53-.04-.08-.09-.16-.14-.26-.05-.1-.1-.18-.14-.26-.05-.08-.1-.17-.14-.25-.05-.09-.09-.17-.14-.26-.02-.03-.01-.06.01-.09.03-.03.05-.06.08-.09h0s.03-.02.04-.03c.01,0,.02-.01.02-.01h0Zm2.95-.66l-.05-.06c-.13.09-.25.18-.38.27-.12.09-.25.18-.37.28-.02.02-.03.04-.02.06,0,.02.03.03.05.02.05-.01.09-.03.14-.05.03-.01.07-.02.11-.03.04,0,.07,0,.1.04l.46.61c-.02.08-.06.15-.11.21-.06.06-.11.11-.17.16-.14.11-.29.18-.46.23-.17.05-.33.07-.5.06-.17-.01-.33-.05-.48-.13-.15-.08-.29-.19-.4-.34-.1-.14-.17-.28-.19-.42-.02-.15-.02-.29.02-.43.04-.14.1-.27.19-.4.09-.13.2-.23.32-.33.07-.06.15-.1.24-.14.09-.04.17-.07.26-.08.09-.01.17,0,.26.01.09.02.17.07.25.14.01,0,.03.01.05,0,.02,0,.03-.02.04-.03.01-.02.01-.06-.01-.12-.02-.05-.05-.11-.09-.17-.03-.06-.07-.11-.11-.16-.04-.05-.06-.08-.07-.1-.02-.02-.04-.02-.06,0-.05.03-.1.06-.15.09-.05.03-.1.06-.15.09-.09.05-.19.11-.29.17-.1.06-.2.13-.28.19-.16.12-.3.26-.42.41-.12.16-.21.32-.27.5-.06.17-.08.36-.05.54.02.19.1.37.24.55.12.16.26.28.41.37.16.09.32.15.49.17.17.02.35.01.53-.03.18-.04.35-.12.51-.22.05-.03.1-.07.14-.1.05-.03.09-.07.14-.1.06-.05.12-.1.18-.15.06-.05.12-.11.18-.17.06-.06.11-.12.15-.19.05-.07.08-.13.11-.21,0,0,0-.01,0-.02,0,0,0-.02,0-.02l-.52-.69s-.04-.1-.01-.14c.03-.05.06-.09.09-.13h0Zm1.84-.78s-.01-.01-.03,0c-.01,0-.03,0-.04.02-.01,0-.02.02-.02.03s0,.02,0,.03c.06.1.08.19.05.29-.03.1-.07.18-.14.25-.06.06-.13.11-.22.15-.09.04-.17.06-.26.05l-.65-.65.04-.04s.06-.06.1-.1c.04-.04.08-.08.12-.12.04-.04.08-.07.12-.1.04-.03.07-.04.09-.05.01,0,.03,0,.06.01.03,0,.05.02.08.03.01,0,.02.02.03.02,0,0,.03,0,.07,0,.02,0,.03-.01.04-.03,0-.02,0-.03,0-.05-.03-.04-.05-.07-.07-.1-.02-.03-.05-.06-.07-.09-.02-.03-.06-.07-.09-.12-.04-.04-.07-.08-.09-.12,0-.01-.02-.02-.04-.02s-.03.01-.04.03c0,.02-.01.04-.01.07,0,.03,0,.06-.01.09h0s-.02.05-.03.08c0,.03-.02.04-.03.06l-.4.4-.64-.64.06-.06s.04-.04.05-.06c.02-.02.03-.04.05-.05.02-.02.03-.04.05-.05.02-.02.03-.04.05-.05.03-.03.06-.06.1-.09.04-.03.07-.05.11-.06.04-.01.07-.02.11,0,.04,0,.08.03.12.06.02.02.04.01.06-.01.02-.02.03-.04.02-.06,0-.02-.02-.03-.03-.05-.01-.02-.02-.03-.03-.05-.03-.04-.05-.09-.08-.13-.03-.04-.06-.09-.1-.14,0-.01-.02-.02-.04-.01-.02,0-.03.02-.04.04-.02.04-.07.11-.16.21-.09.1-.19.2-.3.31-.08.08-.15.16-.23.23-.08.08-.15.14-.21.21-.04.04-.08.08-.11.11-.03.03-.06.06-.08.08-.02.02-.03.04-.02.06,0,.02.02.03.05.02.03,0,.06-.02.08-.03.02-.01.05-.03.07-.04.03-.02.06-.03.09-.04.03,0,.07,0,.11.04l1.38,1.37c.06.06.1.12.12.18s0,.12-.06.18c-.02.02-.02.04,0,.06.02.02.04.02.06,0,.08-.07.16-.15.24-.23.08-.08.16-.16.24-.24.04-.04.07-.07.1-.11.03-.04.07-.07.1-.11.02-.02.04-.04.08-.08.04-.04.08-.08.13-.12.04-.04.09-.08.12-.12.04-.04.06-.07.07-.08v-.04s-.23-.38-.23-.38h0Zm.59-3.8l-.07-.04c-.08.08-.15.17-.23.25-.08.08-.15.17-.22.26l-.11.13s-.02.04-.01.06c0,.02.02.02.04.01.04-.01.08-.04.13-.09.02-.01.03-.03.05-.04.02-.01.04-.02.06-.03.02,0,.05,0,.08,0,.03,0,.07.03.1.06l.22.19s.08.06.11.1c.04.03.07.06.11.1.06.05.13.1.2.16.07.05.14.1.2.15.08.06.15.12.23.18.07.06.15.12.22.18-.49.05-.98.1-1.47.16-.49.06-.98.12-1.47.18,0,0-.02,0-.03.02-.01,0-.02.02-.02.03,0,.02,0,.04,0,.07,0,.02.01.04.03.06l1.72,1.43s.07.09.07.14c0,.05-.02.09-.06.13l-.04.04s-.02.04,0,.06c.02.02.04.02.06,0,.05-.04.11-.09.15-.14.05-.05.1-.11.14-.16l.11-.13s.07-.08.1-.13c.04-.04.07-.09.11-.13.02-.02.02-.04.01-.06,0-.02-.03-.02-.05-.01-.04,0-.06.02-.09.04-.02.02-.05.04-.07.06-.02.01-.03.03-.05.04-.02.01-.04.02-.06.02s-.05,0-.08-.02c-.03-.01-.07-.04-.11-.07-.09-.08-.18-.15-.28-.22-.09-.07-.18-.14-.28-.21-.1-.07-.19-.14-.28-.22-.09-.07-.19-.15-.28-.22-.02-.02-.05-.04-.07-.06-.02-.02-.04-.04-.06-.06l.34-.03h0c.43-.03.86-.07,1.29-.12.43-.05.86-.12,1.29-.22.02,0,.03-.02.04-.04,0-.02,0-.03,0-.05-.14-.14-.28-.28-.43-.41-.15-.13-.3-.26-.45-.39-.07-.06-.14-.12-.23-.19-.08-.07-.16-.13-.23-.19-.08-.06-.15-.12-.22-.18-.08-.06-.15-.13-.23-.19-.03-.02-.03-.05-.02-.09.01-.04.03-.08.04-.11h0s.01-.03.02-.04c0-.01.01-.02.01-.02h0Z"/>
  <path class="cls-2" d="m23.41,39.7v-.04c-.11.01-.21.02-.31.04-.1.01-.2.03-.3.04-.02,0-.02,0-.03.02,0,.01,0,.02.02.02.02,0,.03.01.05.01.02,0,.03,0,.05,0,.03,0,.05.01.07.02.02.01.04.03.04.07l.09.57s-.08.08-.13.1c-.05.02-.1.03-.16.04-.03,0-.07,0-.12,0-.04,0-.09,0-.13,0-.04,0-.08,0-.13-.02-.04,0-.08-.02-.11-.04-.07-.04-.14-.08-.2-.13-.06-.05-.12-.11-.17-.18-.05-.07-.09-.14-.13-.21-.03-.07-.06-.15-.07-.23-.02-.12-.01-.23.01-.33.03-.1.07-.2.13-.28.06-.08.14-.15.23-.2.09-.05.2-.09.31-.11.07-.01.13-.01.2,0,.06,0,.12.02.18.05.06.03.1.06.15.11.04.05.08.11.1.18,0,0,0,.01.02.01,0,0,.02,0,.03,0,.01,0,.02-.03.03-.07,0-.04,0-.07,0-.12,0-.04,0-.09,0-.13,0-.04,0-.08-.01-.11v-.03s0-.01-.02-.01c0,0-.01,0-.02,0-.04,0-.07,0-.1,0-.03,0-.07,0-.1,0-.08,0-.15,0-.23,0-.08,0-.16.01-.24.02-.14.02-.28.06-.4.12-.12.06-.23.14-.31.23s-.14.21-.18.33c-.04.13-.05.27-.02.42.02.13.06.25.12.36.06.11.14.21.23.29.09.08.2.15.32.19.12.04.25.06.38.05.08,0,.15-.02.23-.03.05,0,.1-.02.15-.03.05-.01.11-.03.16-.04.05-.02.1-.04.15-.07.05-.03.09-.06.12-.09,0,0,.01-.01.01-.02l-.1-.64s0-.04,0-.06c0-.02.02-.03.03-.04.01-.01.03-.02.05-.03.02,0,.04-.02.06-.02h0Zm1.21.34s0,0,0-.01c0,0-.01,0-.02,0,0,0-.01,0-.02,0,0,0-.01,0-.01.01,0,.06-.03.11-.07.15-.04.03-.09.06-.15.06-.04,0-.09,0-.15,0-.05,0-.1-.03-.13-.06l-.08-.5h.03s.05-.01.08-.02c.03,0,.06,0,.09-.01.03,0,.06,0,.09,0,.03,0,.04,0,.05,0,0,0,.01.01.02.02,0,.01.02.03.02.04,0,0,0,.01,0,.02,0,0,.01.01.03.02,0,0,.02,0,.03,0,0,0,.01-.01.02-.02,0-.02,0-.05,0-.07,0-.02,0-.04,0-.06,0-.02,0-.05,0-.08,0-.03,0-.06,0-.08,0,0,0-.02-.01-.02,0,0-.02,0-.03,0,0,0-.02.01-.03.03,0,.01-.02.03-.03.03h0s-.03.02-.04.02c-.01,0-.02.01-.03.01l-.31.05-.08-.49h.05s.03-.01.04-.01c.01,0,.03,0,.04,0,.01,0,.03,0,.04,0,.01,0,.03,0,.04,0,.02,0,.05,0,.07,0,.02,0,.05,0,.07,0,.02,0,.04.02.05.03.01.02.03.04.03.07,0,.01.01.02.03.02.02,0,.03-.01.03-.02,0-.01,0-.02,0-.03,0-.01,0-.02,0-.03,0-.03,0-.06,0-.09,0-.03,0-.06,0-.09,0,0,0-.02-.01-.02,0,0-.02,0-.03,0-.02.01-.07.03-.14.04-.07.01-.15.03-.23.04-.06,0-.12.02-.18.03-.06,0-.11.02-.16.02-.03,0-.06,0-.08.01-.03,0-.05,0-.06,0-.02,0-.03,0-.03.02,0,.01,0,.02.02.02.02,0,.03.01.05.01.02,0,.03,0,.04,0,.02,0,.04,0,.06.01.02,0,.03.03.03.05l.16,1.06s0,.09,0,.12c-.01.03-.04.05-.09.06-.02,0-.02.01-.02.03,0,.01,0,.02.03.02.06,0,.12-.01.18-.02.06-.01.12-.02.19-.03.03,0,.06,0,.08-.01.03,0,.06,0,.08-.01.01,0,.03,0,.06,0,.03,0,.06,0,.1-.01.03,0,.07,0,.09-.01.03,0,.05,0,.06-.01h.02s.02-.26.02-.26h0Zm2.27-.13s-.05-.01-.06,0c0,0-.02,0-.04,0-.02,0-.04,0-.07,0-.02,0-.04-.02-.06-.04-.02-.02-.04-.05-.06-.11-.02-.05-.04-.11-.06-.18-.02-.07-.04-.13-.05-.2-.02-.07-.03-.13-.05-.18,0-.02-.01-.04-.02-.06,0-.02,0-.03-.01-.05-.05-.16-.1-.33-.15-.49,0-.01-.01-.02-.02-.02-.01,0-.02,0-.03.01-.03.06-.05.11-.07.17-.02.06-.04.11-.06.16,0,.02-.01.04-.02.06,0,.02-.01.04-.02.06-.02.05-.04.11-.06.16-.02.05-.04.11-.06.16-.03.08-.05.16-.08.23-.03.08-.05.15-.08.23-.02-.02-.04-.05-.06-.08-.02-.03-.06-.08-.1-.14-.06-.08-.12-.16-.19-.25-.07-.09-.13-.17-.2-.25-.06-.08-.12-.15-.17-.21-.05-.06-.09-.09-.11-.11-.01,0-.02,0-.03,0-.01,0-.02.01-.02.02,0,.01,0,.03,0,.04,0,.02,0,.04,0,.06,0,.06,0,.12,0,.21,0,.08,0,.17.01.26,0,.09,0,.18,0,.27,0,.09,0,.17,0,.25,0,.07,0,.14,0,.19,0,.05,0,.08,0,.09,0,.01-.01.02-.03.03-.01,0-.03,0-.04.01-.01,0-.03,0-.04.01-.01,0-.02.02-.02.03,0,.01.01.02.03.02.07,0,.15-.02.22-.03.07,0,.15-.02.22-.03.02,0,.02,0,.03-.02,0-.01,0-.02-.02-.02-.03,0-.05-.01-.06-.02-.01,0-.02,0-.03,0-.01,0-.02,0-.03,0,0,0-.01,0-.02-.01,0,0,0-.02,0-.03,0-.01,0-.03-.01-.06v-.04c-.02-.09-.03-.18-.03-.27,0-.09,0-.18,0-.27,0-.03,0-.07,0-.1,0-.03,0-.07,0-.1.02.02.04.04.05.06.01.02.02.03.04.05.01.02.02.03.04.05.01.02.03.04.05.06.04.05.08.11.12.16s.08.11.13.17c.05.05.09.11.14.16.05.05.1.1.15.14,0,0,.02,0,.03,0,0,0,.02,0,.02-.02.02-.05.04-.1.06-.16.02-.05.04-.11.05-.16.04-.12.08-.24.12-.36.04-.12.09-.24.13-.35,0,.03.01.05.02.07,0,.02.01.04.02.05,0,.02.01.04.02.06,0,.02.01.04.02.07.03.09.05.19.08.28.02.09.04.19.06.28,0,.02,0,.03,0,.05,0,.02,0,.03,0,.04,0,0,0,.02,0,.02,0,0,.01,0,.02,0,.15-.01.3-.03.44-.05v-.05h0Zm1.09-.39s0,0,0-.01c0,0-.01,0-.02,0,0,0-.01,0-.02,0,0,0-.01,0-.01.01,0,.06-.03.11-.07.14-.04.03-.09.06-.15.06-.04,0-.09,0-.15,0-.05,0-.1-.03-.13-.06l-.08-.5h.03s.05-.01.08-.02c.03,0,.06,0,.09-.01.03,0,.06,0,.09,0,.03,0,.04,0,.05,0,0,0,.01.01.02.02,0,.01.02.03.02.04,0,0,0,.01,0,.02,0,0,.01.01.03.02,0,0,.02,0,.03,0,0,0,.01-.01.02-.02,0-.02,0-.05,0-.07,0-.02,0-.04,0-.06,0-.02,0-.05,0-.08,0-.03,0-.06,0-.08,0,0,0-.02-.01-.02,0,0-.02,0-.03,0,0,0-.02.01-.03.03,0,.01-.02.03-.03.03h0s-.03.02-.04.02c-.01,0-.02.01-.03.01l-.31.05-.08-.49h.05s.03-.01.04-.01c.01,0,.03,0,.04,0,.01,0,.03,0,.04,0,.01,0,.03,0,.04,0,.02,0,.05,0,.07,0,.02,0,.05,0,.07,0,.02,0,.04.02.05.03.01.02.03.04.03.07,0,.01.01.02.03.02.02,0,.03-.01.03-.02,0-.01,0-.02,0-.03,0-.01,0-.02,0-.03,0-.03,0-.06,0-.09,0-.03,0-.06,0-.09,0,0,0-.02-.01-.02,0,0-.02,0-.03,0-.02.01-.07.03-.14.04-.07.01-.15.03-.23.04-.06,0-.12.02-.18.03-.06,0-.11.02-.16.02-.03,0-.06,0-.08.01s-.05,0-.06,0c-.02,0-.03,0-.03.02,0,.01,0,.02.02.02.02,0,.03.01.05.01.02,0,.03,0,.04,0,.02,0,.04,0,.06.01.02,0,.03.03.03.05l.16,1.06s0,.09,0,.12c-.01.03-.04.05-.09.06-.02,0-.02.01-.02.03,0,.01,0,.02.03.02.06,0,.12-.01.18-.02.06-.01.12-.02.19-.03.03,0,.06,0,.08-.01.03,0,.05,0,.08-.01.01,0,.03,0,.06,0,.03,0,.06,0,.1-.01.03,0,.07,0,.09-.01.03,0,.05,0,.06-.01h.02s.02-.26.02-.26h0Zm.71.12s-.03-.02-.05-.02c-.02,0-.03,0-.05,0,0,0-.02,0-.03,0-.01,0-.02,0-.02,0,0,0-.01-.01-.02-.03,0-.01-.01-.03-.02-.04,0-.02-.01-.03-.02-.04,0-.01,0-.02,0-.03l-.16-1.05s0-.07.02-.08c.02-.01.05-.03.08-.04.02,0,.02-.01.02-.03,0-.01-.01-.02-.03-.02-.04,0-.08,0-.12.02-.04,0-.08.02-.12.02-.04,0-.08.01-.12.01-.04,0-.08,0-.12.02-.02,0-.02.01-.02.03,0,.01.01.02.03.02.03,0,.06,0,.09.01.03.01.05.03.05.07l.16,1.05s0,.03,0,.05c0,.02,0,.04,0,.05,0,.02,0,.03-.02.05,0,.01-.02.02-.03.02,0,0,0,0-.01,0,0,0-.01,0-.02,0-.02,0-.03,0-.03.02,0,.02,0,.03.02.03.01,0,.03,0,.05,0,.02,0,.04,0,.07-.01.02,0,.04-.01.07-.02.02,0,.04,0,.05-.01h.1s.06-.02.09-.03c.03,0,.06-.01.09-.01v-.04h.01Zm1.65-1.61l-.02-.04c-.06,0-.13.01-.19.02-.06,0-.13.02-.19.03l-.09.02s-.02,0-.03.02c0,.01,0,.02.01.02.02,0,.05.01.08.01.01,0,.02,0,.04,0,.01,0,.02,0,.04.01.01,0,.02.02.03.03,0,.02.02.04.02.06l.02.16s0,.05.01.08c0,.03,0,.05.01.08,0,.04.01.09.02.14,0,.05.02.09.03.14,0,.05.02.11.03.16,0,.05.02.1.02.16-.22-.16-.45-.32-.67-.47-.22-.16-.45-.31-.67-.46,0,0,0,0-.02,0,0,0-.01,0-.02,0,0,0-.01.02-.02.03,0,.01,0,.02,0,.04l.19,1.22s0,.06-.02.08c-.02.02-.04.03-.07.03h-.03s-.02.02-.02.03c0,.01,0,.02.02.02.04,0,.08,0,.11,0,.04,0,.08,0,.12-.02h.09s.06-.02.09-.03c.03,0,.06,0,.09-.01.02,0,.03,0,.03-.02,0-.01,0-.02-.02-.02-.02,0-.03-.01-.05-.01-.02,0-.03,0-.05,0-.01,0-.02,0-.04,0-.01,0-.02,0-.03-.01-.01,0-.02-.02-.03-.04,0-.02-.01-.04-.02-.07-.01-.07-.02-.13-.03-.19-.01-.06-.02-.13-.04-.19-.01-.06-.03-.13-.04-.19s-.02-.13-.03-.19c0-.02,0-.03,0-.05,0-.02,0-.03,0-.05l.15.11h0c.19.14.39.28.58.42.2.14.4.27.62.38.01,0,.02,0,.03,0,0,0,.01-.01.02-.02,0-.11-.02-.22-.03-.33-.01-.11-.03-.22-.05-.33,0-.05-.02-.1-.03-.16-.01-.06-.02-.11-.03-.16,0-.05-.02-.11-.03-.16,0-.05-.02-.11-.03-.16,0-.02,0-.03.02-.05.02-.01.04-.02.06-.03h0s.02,0,.03-.01c0,0,.01,0,.01,0h0Zm1.16.83s-.02-.09-.05-.12c-.03-.04-.06-.07-.1-.1-.04-.03-.08-.06-.13-.09-.05-.03-.09-.05-.14-.08-.03-.02-.07-.04-.11-.06-.04-.02-.07-.04-.1-.07-.03-.02-.06-.05-.08-.08-.02-.03-.03-.05-.04-.08,0-.03,0-.06,0-.09,0-.03.02-.05.04-.07.02-.02.04-.04.07-.05.03-.01.06-.02.08-.03.03,0,.06,0,.09,0,.03,0,.06.01.08.03.03.01.05.03.07.05.02.02.03.05.04.08,0,.01,0,.02.02.02.01,0,.02,0,.03-.01.02-.03.02-.06.02-.09,0-.04,0-.07-.01-.11v-.07s-.02-.02-.04-.02c-.07,0-.15,0-.22.01-.05,0-.1.02-.16.04-.06.02-.12.05-.18.08-.05.03-.1.08-.13.13-.03.05-.05.11-.04.17,0,.04.02.08.05.11.03.03.06.07.1.1.04.03.08.06.13.09.05.03.09.06.14.09.04.03.08.05.12.08.04.03.08.05.11.08.03.03.06.06.08.09.02.03.04.06.04.09,0,.03,0,.07-.01.09-.01.03-.04.05-.06.08-.03.02-.06.04-.09.05-.03.01-.06.02-.09.03-.03,0-.07,0-.1,0-.04,0-.07-.01-.1-.03-.03-.01-.06-.03-.08-.06-.02-.02-.03-.05-.03-.09v-.03s0-.01-.02-.01c0,0-.01,0-.02,0,0,0-.01,0-.02,0,0,0,0,0,0,.02,0,.03,0,.05,0,.07,0,.02,0,.04,0,.06,0,.02,0,.04,0,.05,0,.04.02.06.04.08.02.02.05.03.08.04.03,0,.06.01.1.01.03,0,.06,0,.09,0,.06,0,.12-.03.18-.06.07-.03.12-.06.18-.11.05-.04.1-.09.13-.15.03-.06.04-.12.03-.18h0Zm1.58-.21h-.06c-.03.1-.09.17-.16.23-.07.06-.16.09-.25.11-.09.01-.19.01-.28-.01-.09-.02-.17-.06-.25-.11-.07-.05-.14-.12-.19-.19-.05-.08-.08-.17-.1-.26-.01-.09-.01-.18.01-.26.02-.08.06-.14.11-.2.05-.06.11-.1.19-.14.07-.04.15-.06.24-.07.05,0,.11-.01.16,0,.05,0,.1.02.15.04.05.02.09.05.13.09.04.04.07.08.09.14,0,.01.02.02.03.01.02,0,.03-.01.03-.02,0-.06,0-.12,0-.18,0-.06,0-.12-.01-.18,0-.01-.01-.02-.03-.02-.04,0-.08,0-.11,0-.04,0-.08,0-.12,0-.05,0-.1,0-.15,0-.05,0-.1,0-.16.02-.04,0-.09.02-.15.03-.06.01-.11.03-.17.05-.06.02-.11.05-.16.07-.05.03-.09.06-.12.1-.07.09-.13.19-.16.3-.04.12-.05.23-.03.34.02.11.05.2.11.28.06.08.13.15.21.2.08.05.17.09.27.11.1.02.2.02.3,0,.1-.01.2-.04.3-.08.1-.04.2-.08.28-.12,0,0,.01-.01.01-.02.01-.04.02-.08.02-.13,0-.05,0-.09,0-.13h0Z"/>
  <path class="cls-2" d="m34.93,38.68s-.03-.01-.05-.01c-.02,0-.03,0-.05,0,0,0-.02,0-.03,0,0,0-.02,0-.03,0,0,0-.01,0-.02-.02,0-.01-.01-.03-.02-.04,0-.02-.01-.03-.01-.05,0-.01,0-.02,0-.03l-.16-1.05s0-.07.03-.08c.02-.01.05-.03.08-.04.02,0,.02-.02.02-.03,0-.01-.01-.02-.03-.02-.08,0-.17.02-.25.03-.08.01-.17.02-.25.04-.02,0-.03.01-.02.03,0,.02.02.03.03.03.01,0,.03,0,.05,0,.01,0,.02,0,.03,0s.02,0,.03,0c.01,0,.02.01.03.02,0,.01.01.03.02.05l.07.43-.85.13-.07-.43s0-.06.03-.08c.02-.02.05-.03.08-.04.02,0,.03-.01.02-.02,0-.01-.01-.02-.03-.02-.08,0-.17.01-.25.03-.08.01-.17.02-.25.04-.01,0-.02,0-.03.01,0,0,0,.02,0,.02.01.01.02.02.04.02.02,0,.03,0,.05,0,.02,0,.04,0,.06,0,.02,0,.03.03.04.07l.16,1.05s0,.06,0,.08c0,.02,0,.04,0,.05,0,.01-.02.02-.03.03-.02,0-.04.02-.06.02-.02,0-.02.02-.02.03,0,.01.01.02.03.02.05,0,.09-.01.13-.02.04,0,.09-.01.13-.02.04,0,.09-.01.13-.02.04,0,.09-.02.13-.02v-.05c-.07.01-.12,0-.15-.01-.03-.02-.04-.06-.05-.13l-.08-.51.85-.13.08.51s0,.03,0,.05c0,.02,0,.04,0,.06,0,.02,0,.03-.02.05,0,.01-.02.02-.03.02,0,0-.02,0-.03,0l-.02.05s.06,0,.11,0c.05,0,.08-.01.11-.01l.13-.02s.06-.01.09-.02c.03,0,.06-.01.1-.01v-.04h.01Zm1.75-.24v-.05s-.08,0-.12,0c-.04,0-.07-.03-.1-.06-.08-.11-.16-.22-.24-.34-.07-.12-.15-.24-.22-.35l-.15-.25h0s0,0-.01-.02c0,0-.01-.02-.02-.03h0s-.02-.04-.04-.06c-.01-.02-.03-.04-.04-.06-.02-.02-.03-.04-.05-.05-.01-.02-.03-.02-.04-.03-.02,0-.03,0-.04.02-.03.13-.07.26-.1.39-.03.13-.06.26-.1.39-.02.09-.04.18-.07.27-.02.09-.05.18-.07.27,0,.02-.02.04-.03.06-.01.02-.03.04-.04.06-.01.02-.03.03-.05.04-.02,0-.04.01-.05.01v.05s.45-.06.45-.06c.02,0,.03-.01.02-.03,0-.01-.01-.02-.03-.02-.02,0-.04,0-.06,0-.02,0-.04-.01-.04-.03,0-.02,0-.04,0-.08,0-.04.01-.08.02-.13.01-.05.02-.09.03-.14.01-.05.02-.08.03-.11l.42-.06c.05.08.1.15.14.22.04.07.09.14.14.22l-.02.03s-.01.02,0,.03c0,0,.02.01.03,0,.03,0,.06,0,.09-.01.03,0,.06,0,.09-.01.04,0,.09-.01.13-.02.04,0,.08-.02.12-.03h0Zm-.78-.53l-.33.05c.02-.08.04-.16.05-.23.01-.07.03-.15.05-.23l.23.41h0Zm1.67-1.04l-.05-.02s-.03.02-.05.03c-.02,0-.04,0-.06.01l-.29.04c-.08.01-.16.03-.25.04-.08.01-.16.02-.24.03-.02,0-.02,0-.02.02,0,.01,0,.02.02.02.01,0,.03,0,.04.01.01,0,.03,0,.04,0,.02,0,.04,0,.06.01.02,0,.03.03.03.06l.16,1.05s0,.06,0,.08c0,.02,0,.03-.01.05,0,.01-.02.02-.03.03-.02,0-.04.02-.06.02-.01,0-.02.02-.02.03,0,.01.01.02.03.02.05,0,.09-.01.13-.02.04,0,.09-.01.13-.02.04,0,.09-.01.13-.02.04,0,.09-.01.13-.03.02,0,.02-.01.02-.03s-.01-.02-.03-.02c-.06.01-.11,0-.14-.01-.03-.02-.04-.06-.05-.13l-.07-.48s.02,0,.02,0c0,0,.02,0,.03,0,.02,0,.03,0,.04,0,.01,0,.03,0,.04-.01.02,0,.03,0,.04-.01.01,0,.03,0,.04,0,.05,0,.09,0,.13,0,.04.01.06.05.06.1,0,.01,0,.02.02.02.01,0,.02,0,.03,0,.01-.01.02-.03.03-.05,0-.02,0-.05,0-.07,0-.03,0-.05,0-.08,0-.03,0-.05,0-.07v-.03s-.01-.02-.03-.02c-.01,0-.02,0-.03,0,0,0-.02.02-.03.04-.02.01-.03.02-.04.02l-.36.06-.07-.47s.04,0,.05-.01c.01,0,.03,0,.05-.02.03,0,.05-.01.08-.02.03,0,.05-.01.07-.02.05,0,.09,0,.13,0,.04.01.06.05.07.1,0,.01,0,.02.02.02.01,0,.02,0,.03,0,0,0,.02-.02.02-.04,0-.02,0-.03.01-.05,0-.02,0-.04,0-.06,0-.02,0-.04,0-.06,0,0,0-.01,0-.02,0,0,0-.02,0-.02,0,0,0-.01,0-.02,0,0,0,0,0,0h0Zm1.47-.18v-.04s-.02-.02-.04-.02c-.01,0-.02,0-.03,0,0,0-.02,0-.02,0h0s-.03.01-.04.02c-.01,0-.02,0-.03.01l-.92.14s-.02,0-.04,0c-.02,0-.03,0-.05,0-.02,0-.04,0-.05,0-.02,0-.03,0-.04,0,0,0-.02,0-.03,0,0,0-.01.01-.02.02,0,.01,0,.02,0,.03,0,.01,0,.02,0,.03,0,.03,0,.06-.01.09,0,.03,0,.06,0,.08,0,.02,0,.03,0,.03,0,0,.01.01.03.01.01,0,.02,0,.03-.02.01-.04.03-.07.06-.1.03-.03.06-.05.1-.05l.33-.05.17,1.09s0,.06,0,.07c0,.02,0,.03-.01.05,0,.01-.02.02-.04.03-.02,0-.04.01-.06.02-.02,0-.02.02-.02.03,0,.01.01.02.03.02.09-.01.18-.02.26-.03.09-.01.18-.02.26-.04.01,0,.02,0,.03-.01,0,0,0-.02,0-.02,0-.01-.02-.02-.04-.02s-.04,0-.05,0c-.01,0-.02,0-.04,0-.01,0-.03,0-.03,0h0s0,0-.01-.02c0-.01-.01-.03-.02-.04,0-.02-.01-.03-.01-.05,0-.01,0-.02,0-.03l-.16-1.07s.02,0,.02,0c0,0,.01,0,.02,0,.02,0,.03,0,.05,0,.02,0,.03,0,.05-.01.02,0,.03,0,.04,0,.01,0,.03,0,.04,0,.06,0,.11,0,.15,0,.05,0,.08.04.1.1,0,.01.02.02.03.01.02,0,.03-.01.03-.02,0-.07,0-.14,0-.21h0Z"/>
</svg>